<?xml version="1.0" encoding="UTF-8" standalone="no"?>
<!-- Created with Inkscape (http://www.inkscape.org/) -->

<svg
   width="161.26189mm"
   height="161.39709mm"
   viewBox="0 0 161.26189 161.39709"
   version="1.1"
   id="svg1"
   xml:space="preserve"
   xmlns:inkscape="http://www.inkscape.org/namespaces/inkscape"
   xmlns:sodipodi="http://sodipodi.sourceforge.net/DTD/sodipodi-0.dtd"
   xmlns="http://www.w3.org/2000/svg"
   xmlns:svg="http://www.w3.org/2000/svg"><sodipodi:namedview
     id="namedview1"
     pagecolor="#ffffff"
     bordercolor="#000000"
     borderopacity="0.25"
     inkscape:showpageshadow="2"
     inkscape:pageopacity="0.0"
     inkscape:pagecheckerboard="0"
     inkscape:deskcolor="#d1d1d1"
     inkscape:document-units="mm" /><defs
     id="defs1" /><g
     inkscape:label="Layer 1"
     inkscape:groupmode="layer"
     id="layer1"
     transform="translate(-36.982625,-122.91098)"><path
       style="fill:#00ba6f;fill-opacity:1"
       d="m 113.29773,284.16655 c -5.00836,-0.26991 -11.21477,-1.25194 -16.467736,-2.60565 -10.52623,-2.71265 -20.02363,-7.47066 -29.5425,-14.8002 -2.911697,-2.24201 -10.769597,-10.10333 -12.987497,-12.99314 -9.65577,-12.58104 -14.76965,-24.86864 -16.95769,-40.74584 -0.53805,-3.90435 -0.4563,-15.71953 0.1373,-19.84374 0.96447,-6.7008 2.68625,-13.54167 4.71308,-18.72563 2.7827,-7.11724 7.64296,-15.52748 12.45729,-21.55623 2.69715,-3.37751 8.77819,-9.47861 12.108347,-12.14829 6.13082,-4.91487 14.56097,-9.80377 21.75563,-12.61674 5.18064,-2.02553 12.013996,-3.74585 18.725616,-4.71424 4.67476,-0.6745 15.96273,-0.6745 20.6375,0 10.06703,1.45252 17.58082,3.784 26.19516,8.12816 7.97472,4.0216 13.98589,8.39435 20.51467,14.92313 13.72745,13.72746 21.6048,30.53793 23.42431,49.98811 0.48692,5.20505 0.18336,14.34259 -0.64701,19.47589 -1.94668,12.03425 -5.94613,22.35777 -12.45406,32.14687 -8.92275,13.42141 -20.86752,23.37731 -35.73412,29.78418 -4.00217,1.72476 -6.00905,2.41458 -10.31875,3.54679 -6.1056,1.60403 -10.97894,2.40843 -16.09564,2.65677 -1.6249,0.0789 -3.54967,0.18044 -4.27727,0.22571 -0.72761,0.0453 -3.06159,-0.0114 -5.18663,-0.12591 z M 84.963554,254.52109 c 1.53851,-0.37767 2.49652,-1.02838 3.20737,-2.17856 1.24315,-2.01147 0.37219,-4.03812 -2.28708,-5.32185 -2.03889,-0.98424 -2.56726,-1.48401 -2.33676,-2.21026 0.19587,-0.61714 1.23734,-0.89316 2.9227,-0.7746 l 1.05833,0.0744 v -1.19062 -1.19063 l -1.5875,-0.0816 c -2.05815,-0.10586 -3.60689,0.34225 -4.53654,1.3126 -0.65582,0.68453 -0.74593,0.97961 -0.75023,2.45699 -0.006,2.02701 0.38373,2.57329 2.50865,3.51713 2.48458,1.1036 3.02116,2.02074 1.69182,2.89175 -0.6008,0.39367 -0.87961,0.41184 -2.16904,0.14138 -1.83833,-0.38559 -1.94546,-0.2729 -1.90007,1.99878 0.005,0.25867 1.54338,0.81395 2.32627,0.83977 0.33574,0.0111 1.16918,-0.11703 1.85208,-0.28467 z m 10.50206,-0.19212 c 0.68882,-0.1473 0.79809,-0.29181 0.8266,-1.09318 0.0419,-1.17728 -0.29755,-1.61701 -1.04553,-1.35444 -1.09594,0.38471 -2.12723,-0.0264 -2.62646,-1.0471 -0.40925,-0.8367 -0.42214,-1.0714 -0.10899,-1.98438 0.43948,-1.28126 1.37995,-1.82972 2.44388,-1.42522 0.90573,0.34436 1.22662,0.0671 1.35348,-1.16958 0.11359,-1.10718 -0.0802,-1.2473 -1.84908,-1.33669 -2.06869,-0.10454 -3.16497,0.47799 -4.31988,2.29548 -0.49601,0.78056 -0.62714,1.35039 -0.62714,2.72512 0,0.97741 0.1627,2.0509 0.37173,2.45265 0.46993,0.90319 1.45524,1.81419 2.14181,1.98028 0.74408,0.18 2.49947,0.15809 3.43958,-0.0429 z m 13.997846,-0.19153 c 0.33221,-0.12748 0.42892,-0.42333 0.36976,-1.13115 -0.0785,-0.93979 -0.1008,-0.95739 -1.13845,-0.90036 -2.80115,0.15394 -2.88032,0.14087 -3.49829,-0.57756 -0.33151,-0.38541 -0.60275,-0.81316 -0.60275,-0.95057 0,-0.14085 1.21181,-0.24983 2.77813,-0.24983 h 2.77812 v -1.46835 c 0,-2.65815 -1.23638,-3.89891 -3.88516,-3.89891 -2.1828,0 -3.83538,1.39235 -4.34258,3.65878 -0.5692,2.54348 0.72028,5.19652 2.80378,5.76863 0.63796,0.17517 4.10589,-0.008 4.73744,-0.25068 z m -4.60514,-6.00551 c 0,-1.00191 1.88686,-1.37355 2.37194,-0.46718 0.41607,0.77743 0.37248,0.81114 -1.04903,0.81114 -0.90908,0 -1.32291,-0.1076 -1.32291,-0.34396 z m 23.34917,5.9402 c 0.12961,-0.12961 0.15212,-0.68091 0.05,-1.22511 -0.17538,-0.93482 -0.23171,-0.98199 -1.02005,-0.85406 -1.51334,0.24558 -2.29252,-0.0648 -2.7178,-1.08263 -0.89013,-2.13039 0.75188,-4.33541 2.5779,-3.46181 0.22612,0.10818 0.54806,0.11207 0.71541,0.009 0.3105,-0.19189 0.54893,-2.02421 0.29627,-2.27686 -0.23255,-0.23256 -3.23689,-0.20949 -3.82739,0.0294 -0.82879,0.33527 -2.04487,1.45764 -2.47101,2.28061 -0.20772,0.40116 -0.3858,1.47163 -0.39572,2.37884 -0.0269,2.46058 0.88047,4.01459 2.63651,4.51531 0.72902,0.20787 3.87185,-0.0283 4.15585,-0.31231 z m 8.5953,-0.12107 c 0.22352,-0.22352 0.28204,-0.6452 0.1684,-1.21343 -0.17418,-0.87086 -0.17418,-0.87086 -1.393,-0.66845 -0.67036,0.11133 -1.48857,0.1943 -1.81826,0.18438 -0.86078,-0.0259 -1.91411,-0.79261 -1.91411,-1.39326 0,-0.47037 0.22929,-0.52019 2.71198,-0.58922 l 2.71197,-0.0754 -0.006,-1.51017 c -0.01,-2.44043 -1.22576,-3.62985 -3.76903,-3.68715 -1.61427,-0.0364 -2.55775,0.40895 -3.59254,1.69565 -0.63644,0.79138 -0.82434,1.31611 -0.91371,2.55165 -0.18745,2.59151 0.81149,4.46038 2.69751,5.04662 1.08228,0.33641 4.67914,0.0966 5.11692,-0.34122 z m -4.94856,-5.67361 c 0.041,-0.96715 1.90339,-1.60906 2.39888,-0.82682 0.50106,0.79104 0.25333,1.02526 -1.08438,1.02526 -0.7276,0 -1.31913,-0.0893 -1.3145,-0.19844 z m -31.36916,5.51412 c 0.0882,-0.27784 0.13265,-2.31007 0.0988,-4.51607 -0.0673,-4.38951 -0.10123,-4.47767 -1.678686,-4.36442 -0.43657,0.0313 -0.88305,0.0723 -0.99219,0.0911 -0.10914,0.0188 -0.19844,2.11771 -0.19844,4.66432 v 4.63021 h 1.30509 c 1.052026,0 1.336166,-0.0979 1.465406,-0.50515 z m 14.16283,-2.43229 c 0.13483,-2.85896 0.32613,-3.40826 1.38421,-3.97453 1.03601,-0.55445 1.26162,0.0984 1.26162,3.6509 v 3.28873 l 1.38907,-0.08 1.38906,-0.08 0.0737,-3.3231 c 0.0862,-3.88751 -0.24775,-5.09647 -1.56016,-5.6483 -0.9771,-0.41084 -2.72417,-0.27046 -3.57541,0.28729 -0.56338,0.36915 -0.62664,0.36942 -0.62664,0.003 0,-0.47277 -0.57133,-0.629 -1.78594,-0.48837 l -0.8599,0.0996 v 4.61509 4.61509 l 1.38907,-0.08 1.38906,-0.08 z m -14.59648,-7.53874 c 0.88112,-0.61716 0.71749,-2.18567 -0.286326,-2.74467 -0.65336,-0.36384 -0.80185,-0.36385 -1.45521,-6e-5 -0.98164,0.54658 -1.12783,1.83818 -0.29579,2.61334 0.71167,0.66302 1.23055,0.69648 2.037326,0.13139 z m 2.95481,-8.44153 v -1.98437 l 0.8599,-0.0116 c 3.10482,-0.0419 4.94361,-2.10951 4.95513,-5.57166 0.006,-1.93345 -0.62199,-3.24432 -1.85422,-3.86783 -0.92301,-0.46705 -2.67241,-0.41716 -3.4067,0.0972 -0.57746,0.40447 -0.63942,0.40447 -0.86577,0 -0.13798,-0.24656 -0.57321,-0.43564 -1.00276,-0.43564 -1.66581,0 -1.59599,-0.30026 -1.59599,6.86337 0,3.5982 0.0794,6.62156 0.17639,6.71857 0.097,0.097 0.75185,0.17639 1.4552,0.17639 h 1.27882 z m 0.17639,-4.54201 c -0.33169,-0.33169 -0.17701,-3.02369 0.21759,-3.78675 0.64625,-1.24972 2.03963,-1.35965 2.35446,-0.18575 0.56731,2.11529 -0.2489,4.14889 -1.66521,4.14889 -0.40175,0 -0.80982,-0.0794 -0.90684,-0.17639 z m -5.401896,2.06276 c 0.56097,-0.22033 0.7276,-0.46163 0.7276,-1.05368 0,-1.07665 -0.4924,-1.41134 -1.60635,-1.09187 -1.47044,0.42172 -2.33506,0.31058 -3.03588,-0.39025 -1.25616,-1.25616 -0.94993,-1.46724 2.12869,-1.46724 h 2.77812 v -1.1734 c 0,-1.49431 -0.34115,-2.38178 -1.23345,-3.20874 -0.89189,-0.82657 -1.6125,-1.00847 -3.33833,-0.84264 -1.2203,0.11726 -1.4883,0.26423 -2.48082,1.36051 -0.91078,1.00598 -1.14444,1.48284 -1.28745,2.62748 -0.45914,3.67481 1.52302,5.89658 5.03276,5.64114 0.87313,-0.0635 1.91492,-0.24413 2.31511,-0.40131 z m -4.31577,-6.35385 c 0.53989,-1.00879 2.39754,-0.90477 2.39754,0.13425 0,0.26133 -0.37705,0.36448 -1.33223,0.36448 -1.22314,0 -1.31037,-0.0408 -1.06531,-0.49873 z m 28.082676,6.54673 c 1.5675,-0.46964 2.76322,-1.61372 3.25366,-3.11316 0.5659,-1.73014 0.52915,-2.5593 -0.17628,-3.9772 -0.82745,-1.66319 -1.70808,-2.22024 -3.69611,-2.33802 -1.46561,-0.0868 -1.78649,-0.0106 -2.86048,0.67956 -1.5882,1.0206 -2.21868,2.31247 -2.18455,4.4762 0.033,2.09129 0.63949,3.18854 2.19958,3.97931 1.32342,0.6708 2.01015,0.72894 3.46418,0.29331 z m -2.09056,-2.57397 c -0.19261,-0.12212 -0.46145,-0.71717 -0.59742,-1.32232 -0.49795,-2.21621 0.97324,-3.86088 2.53705,-2.83624 0.57798,0.37871 0.65953,0.62262 0.65953,1.97254 0,1.15629 -0.12065,1.64958 -0.48385,1.97827 -0.51848,0.46922 -1.54404,0.56994 -2.11531,0.20775 z m 11.37395,2.45658 c 0.58308,-0.30152 0.8917,-0.3387 1.09811,-0.13229 0.38528,0.38528 1.84916,0.36545 2.24502,-0.0304 0.46296,-0.46296 0.45057,-12.7405 -0.0132,-13.11126 -0.36738,-0.29368 -1.94307,-0.26073 -2.25062,0.0471 -0.10823,0.10831 -0.19678,0.99061 -0.19678,1.96066 0,1.76373 0,1.76373 -0.79375,1.8336 -2.62524,0.23107 -3.82753,0.96434 -4.65747,2.84057 -0.63815,1.44263 -0.5259,4.25648 0.21657,5.42913 0.95757,1.51237 2.75013,1.99136 4.35215,1.16292 z m -1.74833,-2.5499 c -0.22919,-0.32722 -0.41187,-1.13285 -0.41187,-1.8164 0,-1.63481 0.74877,-2.62264 1.98796,-2.62264 0.49017,0 0.96873,0.12541 1.06347,0.2787 0.0947,0.15328 0.0878,1.00607 -0.0153,1.89508 -0.27983,2.41099 -1.67723,3.61726 -2.62421,2.26526 z m 11.67195,2.57055 c 0.55716,-0.2328 1.07666,-0.30416 1.24827,-0.17146 0.16167,0.12501 0.7702,0.21515 1.35228,0.20031 l 1.05833,-0.027 v -4.6302 -4.63021 h -1.19062 -1.19063 l -0.13229,2.77812 c -0.0728,1.52797 -0.28455,3.04461 -0.47066,3.37032 -0.34579,0.60518 -1.52153,1.07477 -1.85676,0.74159 -0.10237,-0.10174 -0.24565,-1.69362 -0.31841,-3.53751 l -0.13229,-3.35252 -0.75958,-0.0868 c -0.41776,-0.0477 -1.04284,-0.0157 -1.38906,0.0712 -0.62279,0.15631 -0.62949,0.19481 -0.62949,3.61869 0,3.96619 0.33463,5.08475 1.69888,5.67878 1.06407,0.46332 1.55751,0.45908 2.71203,-0.0233 z m 12.06587,-0.0972 c 0.12544,-0.12544 0.19019,-0.69024 0.14388,-1.25512 l -0.0842,-1.02706 -1.49001,0.0895 c -1.31108,0.0787 -1.54142,0.0161 -1.91823,-0.52189 -0.61508,-0.87815 -0.55039,-2.6482 0.12831,-3.51103 0.48083,-0.61127 0.72208,-0.6971 1.77356,-0.63099 1.12288,0.0706 1.23767,0.0191 1.48383,-0.66505 0.41716,-1.15949 -0.0423,-1.62493 -1.69906,-1.72107 -2.56882,-0.14906 -4.17818,1.02299 -4.92307,3.58532 -0.33932,1.16722 -0.36146,1.66151 -0.11775,2.62934 0.64959,2.57976 2.19082,3.64976 4.89875,3.40094 0.86676,-0.0796 1.67855,-0.24743 1.80399,-0.37287 z m 11.5888,0.0921 c 2.21534,-0.78162 3.25584,-2.43979 3.24157,-5.16587 -0.0156,-2.97877 -1.54803,-4.57423 -3.99067,-4.15478 -0.39922,0.0686 -0.93421,0.21376 -1.18887,0.32267 -0.42045,0.17981 -0.46302,-0.0114 -0.46302,-2.07925 v -2.27726 l -0.8599,-0.0305 c -0.97182,-0.0344 -1.87485,0.0407 -2.00682,0.16697 -0.0487,0.0466 -0.0927,2.98178 -0.0978,6.52257 l -0.009,6.4378 1.15617,0.30944 c 1.61993,0.43356 2.88703,0.41799 4.21862,-0.0518 z m -2.40099,-3.9119 c 0,-1.58108 0.0985,-2.04026 0.53947,-2.51354 1.18596,-1.27297 2.21975,-0.46717 2.21975,1.73022 0,1.26386 -0.0971,1.54052 -0.73291,2.08739 -0.4031,0.34673 -1.02392,0.63042 -1.37961,0.63042 -0.62692,0 -0.6467,-0.0592 -0.6467,-1.93449 z m 18.65036,3.89592 c 0.84725,-0.21265 1.08327,-1.02482 0.53915,-1.85525 -0.34277,-0.52313 -0.5551,-0.61736 -1.01413,-0.45007 -0.31933,0.11638 -1.15658,0.21045 -1.86056,0.20904 -1.34893,-0.003 -2.02732,-0.50572 -2.02732,-1.50322 0,-0.43135 0.27423,-0.4786 2.77812,-0.4786 h 2.77813 v -1.20376 c 0,-3.02467 -2.65205,-4.82545 -5.6496,-3.83617 -1.1288,0.37253 -2.33836,1.83651 -2.74315,3.32014 -0.6762,2.47841 0.52813,5.11278 2.7042,5.91522 0.76389,0.28169 3.15389,0.2193 4.49516,-0.11733 z m -4.36286,-6.17976 c 0,-0.3101 1.0632,-1.07334 1.49518,-1.07334 0.37651,0 1.15065,0.72474 1.15065,1.07723 0,0.13513 -0.59531,0.24569 -1.32292,0.24569 -0.7276,0 -1.32291,-0.11231 -1.32291,-0.24958 z m -92.339576,4.08604 0.13229,-2.11667 1.42328,2.195 1.42327,2.19499 1.46624,-0.0783 c 0.80643,-0.0431 1.50516,-0.19739 1.55273,-0.34291 0.0476,-0.14552 -0.6274,-1.27661 -1.49993,-2.51354 -0.87253,-1.23693 -1.58665,-2.3352 -1.58694,-2.4406 -2.9e-4,-0.10541 0.35549,-0.37575 0.79063,-0.60077 0.89852,-0.46464 1.85516,-2.13256 1.85369,-3.23194 -0.001,-0.99899 -0.8666,-2.34943 -1.91482,-2.98854 -0.71022,-0.43302 -1.33496,-0.52593 -3.5419,-0.52674 -1.87814,-7e-4 -2.76504,0.10198 -2.9653,0.34328 -0.40089,0.48304 -0.39117,11.54013 0.0106,12.02419 0.19043,0.22946 0.72998,0.32883 1.51009,0.27813 l 1.2138,-0.0789 z m 0,-6.48891 c 0,-1.58015 3.7e-4,-1.58088 0.79375,-1.58088 1.05088,0 1.83014,0.78922 1.65969,1.68091 -0.16058,0.84 -0.4844,1.10782 -1.59355,1.31795 l -0.85989,0.16291 z m 29.131276,5.79918 c 0.0877,-1.54352 0.2456,-2.94585 0.35094,-3.11629 0.10534,-0.17044 0.62891,-0.51513 1.1635,-0.76599 0.86817,-0.40738 0.98067,-0.57613 1.05334,-1.58006 0.078,-1.07706 0.05,-1.12397 -0.66873,-1.12397 -0.41255,0 -1.00263,0.17688 -1.31128,0.39307 -0.49866,0.34927 -0.57866,0.34756 -0.71791,-0.0153 -0.11484,-0.29925 -0.4579,-0.38663 -1.28362,-0.32693 l -1.1269,0.0815 -0.073,4.35547 c -0.0401,2.3955 -0.0115,4.51576 0.0637,4.71168 0.0924,0.24067 0.50224,0.32979 1.2636,0.27474 l 1.1269,-0.0815 z m 43.8408,2.62119 c 0.21994,-0.21995 0.3175,-1.59206 0.3175,-4.46552 0,-4.65899 -0.0656,-4.83305 -1.76748,-4.69291 l -1.01065,0.0832 -0.0727,4.47822 c -0.0553,3.40552 0.008,4.52949 0.26458,4.6923 0.50912,0.3231 1.90919,0.26429 2.2688,-0.0953 z m 14.74104,0.0468 c 0.13386,-0.2166 0.18953,-5.30304 0.13498,-12.33317 -0.006,-0.72927 -0.10891,-0.8449 -0.85176,-0.95393 -1.88868,-0.2772 -1.80051,-0.60465 -1.80051,6.6874 0,5.00178 0.0786,6.5934 0.33073,6.69513 0.59991,0.24207 2.01617,0.18026 2.18656,-0.0954 z m -14.82689,-10.40752 c 0.57351,-0.41936 0.65937,-1.79141 0.15046,-2.4046 -0.44859,-0.54052 -1.82808,-0.52529 -2.43826,0.0269 -1.46943,1.32981 0.67415,3.55762 2.2878,2.37769 z M 89.517124,211.53542 c 0.1701,-0.17009 0.19037,-0.65907 0.0543,-1.31073 l -0.21696,-1.03943 -1.875,0.0917 c -2.22755,0.10897 -2.88441,-0.17609 -3.46132,-1.50207 -0.75175,-1.72786 -0.31508,-4.82181 0.77567,-5.49593 0.61115,-0.37771 2.42266,-0.57294 3.21299,-0.34628 0.52413,0.15032 0.92499,0.12904 1.15431,-0.0613 0.40832,-0.33888 0.47592,-2.23521 0.0882,-2.47482 -0.56164,-0.34711 -4.17003,-0.15485 -5.2571,0.28012 -1.54769,0.61926 -2.85387,2.23176 -3.21435,3.96818 -0.45072,2.17111 -0.37527,3.89109 0.22724,5.18072 1.20364,2.57625 2.34974,3.18245 5.79429,3.06472 1.34549,-0.046 2.56844,-0.2057 2.71766,-0.35492 z m 8.76711,-0.0359 c 0.21548,-0.21548 0.23227,-0.56722 0.0563,-1.17844 l -0.25092,-0.87127 -1.92149,0.0943 c -1.55379,0.0763 -2.02004,0.005 -2.43645,-0.37173 -1.04699,-0.94751 -0.67828,-1.15472 2.19702,-1.23466 l 2.71198,-0.0754 0.0805,-1.25273 c 0.1002,-1.55982 -0.53917,-2.99146 -1.64681,-3.68739 -0.6451,-0.40532 -1.18524,-0.4936 -2.59199,-0.42363 -1.53519,0.0764 -1.88568,0.19243 -2.57499,0.85283 -1.16702,1.11808 -1.70388,2.73241 -1.53351,4.61127 0.15788,1.74117 0.71686,2.77502 1.90549,3.52432 0.67829,0.42758 1.19034,0.49272 3.25143,0.41361 1.378,-0.0529 2.58049,-0.22804 2.75351,-0.40107 z m -5.06758,-5.84516 c 0,-0.39654 0.95209,-1.09934 1.48927,-1.09934 0.59678,0 1.15657,0.47382 1.15657,0.97895 0,0.23637 -0.41384,0.34396 -1.32292,0.34396 -0.7276,0 -1.32292,-0.10061 -1.32292,-0.22357 z m 9.817906,5.58139 c 0.0156,-0.40019 0.006,-1.57748 -0.0221,-2.61622 -0.0347,-1.29858 0.082,-2.14465 0.37336,-2.70815 0.41761,-0.80757 1.44044,-1.30635 1.98664,-0.96878 0.17024,0.10521 0.2812,1.38276 0.28367,3.26605 0.002,1.70128 0.10332,3.24979 0.22466,3.44113 0.14256,0.22482 0.63255,0.31842 1.38501,0.26459 l 1.1644,-0.0833 0.0447,-3.69259 c 0.0478,-3.94876 -0.166,-4.86324 -1.27603,-5.45731 -0.78297,-0.41903 -3.27455,-0.17278 -3.89034,0.38451 -0.47408,0.42903 -0.50708,0.42372 -0.64503,-0.10379 -0.1241,-0.47456 -0.31304,-0.5439 -1.29039,-0.4736 l -1.14501,0.0824 -0.073,4.35547 c -0.0401,2.39551 -0.0141,4.50887 0.0578,4.69635 0.0827,0.21563 0.61998,0.34089 1.46203,0.34089 1.26899,0 1.33255,-0.034 1.35955,-0.7276 z m 12.5896,0.39687 c 0.13601,-0.1819 0.22825,-0.50932 0.20498,-0.7276 -0.0233,-0.21828 -0.0604,-0.59805 -0.0826,-0.84393 -0.0285,-0.31635 -0.33037,-0.47105 -1.03248,-0.52916 l -0.99219,-0.0821 -0.0762,-2.2994 -0.0762,-2.2994 1.13455,-0.0819 c 1.04909,-0.0757 1.13256,-0.13666 1.1081,-0.80946 -0.0549,-1.50989 -0.0636,-1.52135 -1.15155,-1.52135 h -1.0457 l -0.0788,-1.65365 c -0.0759,-1.59419 -0.10256,-1.65043 -0.74023,-1.56447 -1.53173,0.20648 -1.97946,0.63219 -2.06502,1.96344 -0.0726,1.12959 -0.14464,1.25468 -0.72256,1.25468 -0.45847,0 -0.68787,0.18306 -0.80269,0.64053 -0.26971,1.07462 -0.0367,1.60155 0.74826,1.69215 0.72534,0.0837 0.72534,0.0837 0.72534,2.28203 0,4.20726 0.43247,4.91029 3.02062,4.91029 1.03339,0 1.772,-0.12694 1.92439,-0.33073 z m 8.6064,-0.13628 c 0.28777,-0.23898 0.35276,-0.57951 0.22725,-1.19062 l -0.17579,-0.85591 -1.99504,0.0911 c -1.59407,0.0728 -2.08363,0.003 -2.43581,-0.34963 -0.98361,-0.9836 -0.59616,-1.19672 2.17562,-1.19672 h 2.61638 l 0.15511,-0.8599 c 0.1756,-0.97357 -0.10557,-2.44277 -0.62743,-3.2784 -0.58279,-0.93319 -1.69073,-1.41795 -3.24079,-1.41795 -1.74383,0 -2.93894,0.70221 -3.84089,2.25678 -0.50787,0.87535 -0.59646,1.35952 -0.53133,2.90376 0.0894,2.1202 0.76439,3.36788 2.16365,3.99946 1.01883,0.45987 4.91946,0.38764 5.50907,-0.10201 z m -4.82016,-5.84198 c 0,-0.39654 0.95208,-1.09934 1.48927,-1.09934 0.59678,0 1.15656,0.47382 1.15656,0.97895 0,0.23637 -0.41383,0.34396 -1.32291,0.34396 -0.72761,0 -1.32292,-0.10061 -1.32292,-0.22357 z m 9.78958,3.24021 c 0.14617,-3.24445 0.38882,-3.81039 1.63373,-3.81039 0.7689,0 0.77453,-0.0112 0.6952,-1.38906 -0.0789,-1.37016 -0.0907,-1.38789 -0.87058,-1.30303 -0.43483,0.0473 -0.94992,0.21826 -1.14464,0.37987 -0.26219,0.21759 -0.40709,0.20798 -0.55853,-0.0371 -0.12773,-0.20667 -0.6416,-0.2996 -1.3689,-0.24757 l -1.1644,0.0833 -0.073,4.35547 c -0.0401,2.39551 -0.0116,4.51544 0.0635,4.71096 0.0943,0.24564 0.52562,0.33054 1.39588,0.27474 l 1.25947,-0.0807 z m 10.70709,2.20888 c 0.0813,-0.47294 0.1307,-1.81239 0.10988,-2.97656 -0.0614,-3.43052 -0.097,-3.30729 0.95699,-3.30729 0.92114,0 0.92604,-0.006 0.92604,-1.19063 v -1.19062 h -1.02491 c -1.01573,0 -1.02335,-0.008 -0.85042,-0.8599 0.1591,-0.784 0.27051,-0.86696 1.26218,-0.93992 1.01632,-0.0748 1.09443,-0.13796 1.19078,-0.96326 0.0567,-0.48578 0.0591,-1.01532 0.005,-1.17674 -0.13518,-0.40553 -2.94892,-0.35663 -3.7077,0.0644 -0.91917,0.51005 -1.63401,1.76988 -1.63596,2.88319 -0.002,0.92566 -0.055,0.99219 -0.7955,0.99219 -0.76435,0 -0.79375,0.0441 -0.79375,1.19062 0,1.14653 0.0294,1.19063 0.79375,1.19063 h 0.79375 v 3.57187 3.57188 h 1.31093 c 1.2723,0 1.31528,-0.0253 1.45866,-0.8599 z m 8.8537,0.47253 c 2.46925,-1.2769 3.38304,-4.97044 1.84527,-7.4586 -0.75985,-1.22946 -1.75472,-1.67903 -3.71561,-1.67903 -1.89596,0 -2.83416,0.49555 -3.99458,2.10991 -1.42908,1.9881 -1.18674,4.64064 0.58593,6.41331 0.95898,0.95898 1.07715,1.00178 2.76584,1.00178 1.03133,0 2.07521,-0.1609 2.51315,-0.38737 z m -3.10892,-2.33328 c -1.04496,-1.2591 -0.84899,-3.66074 0.34303,-4.20386 0.92011,-0.41923 1.9614,-0.0639 2.28696,0.78034 0.36314,0.94172 0.13348,2.61251 -0.44732,3.25429 -0.52419,0.57923 -1.76271,0.67525 -2.18267,0.16923 z m 9.7547,2.52221 c 0.007,-0.10914 0.0549,-1.42634 0.10639,-2.92711 0.10265,-2.99339 0.3971,-3.65464 1.69423,-3.80484 0.6339,-0.0734 0.70773,-0.19991 0.78075,-1.33784 0.0784,-1.22247 0.0602,-1.25677 -0.66874,-1.25677 -0.41215,0 -1.00191,0.17688 -1.31056,0.39307 -0.49642,0.34771 -0.5786,0.34771 -0.71203,0 -0.0931,-0.24259 -0.50024,-0.39307 -1.06354,-0.39307 -1.79318,0 -1.74973,-0.11186 -1.74973,4.50458 0,2.30087 0.0723,4.37172 0.1606,4.60191 0.11616,0.30272 0.51877,0.41851 1.4552,0.41851 0.71204,0 1.30038,-0.0893 1.30743,-0.19844 z m 37.29343,-28.45318 c 0,-0.63494 -1.63777,-5.59358 -2.90218,-8.78688 -3.76908,-9.51886 -9.228,-17.81381 -16.77467,-25.48947 -12.33811,-12.549 -27.26236,-20.03303 -45.27836,-22.70561 -4.48866,-0.66587 -15.87932,-0.66629 -20.37291,-7.5e-4 -17.967306,2.66111 -33.294196,10.39213 -45.524363,22.96288 -8.21294,8.44167 -14.12853,18.0797 -17.92326,29.2017 -0.64546,1.89177 -1.25818,3.82654 -1.36159,4.29948 l -0.18803,0.8599 h 75.162673 c 61.18946,0 75.16269,-0.0634 75.16269,-0.34125 z M 88.321864,170.42606 c -4.63909,-0.42577 -7.14596,-2.45644 -7.9875,-6.47023 -0.23296,-1.11108 -0.33753,-4.37804 -0.34136,-10.66379 l -0.005,-9.06198 h 3.04271 3.04271 v 9.13867 c 0,8.70333 0.0259,9.18952 0.54469,10.20634 0.98894,1.93849 4.08382,2.6758 6.54433,1.55909 0.89693,-0.40708 1.25873,-0.78158 1.71979,-1.78013 0.56169,-1.2165 0.58581,-1.6017 0.63417,-10.12814 l 0.0503,-8.86354 h 2.80768 2.807676 l -0.0203,8.96422 c -0.0112,4.93032 -0.13888,9.49334 -0.28381,10.14004 -0.62976,2.8101 -2.275296,4.86025 -4.863516,6.0594 -1.84219,0.85349 -4.63657,1.18047 -7.69203,0.90005 z m 20.240616,-2.70697 v -2.44014 l 4.37983,-7.2833 c 2.4089,-4.00581 4.56655,-7.55119 4.79477,-7.87861 l 0.41495,-0.59531 h -4.66248 -4.66248 v -2.64584 -2.64583 h 8.33437 8.33438 v 2.4825 2.48249 l -2.95111,4.7274 c -1.6231,2.60007 -3.76623,6.01223 -4.7625,7.58257 -0.99626,1.57034 -1.81139,2.9098 -1.81139,2.97656 0,0.0668 2.20265,0.1214 4.89479,0.1214 h 4.89479 v 2.77812 2.77813 h -8.59896 -8.59896 z m 24.72747,2.10941 c -0.0697,-0.1819 -0.0957,-5.9862 -0.0578,-12.89844 l 0.0689,-12.56771 h 2.99998 2.99997 l -0.0338,4.65531 c -0.0271,3.73316 0.0407,4.71717 0.34251,4.96764 0.26385,0.21897 1.67072,0.29056 4.70678,0.23948 l 4.33044,-0.0729 0.072,-4.96093 0.072,-4.96094 h 3.03687 3.03687 v 12.96458 12.96459 h -3.04271 -3.04271 v -5.43007 -5.43006 l -4.69635,0.0722 -4.69636,0.0722 -0.0716,5.35781 -0.0716,5.35781 h -2.91324 c -2.0866,0 -2.94921,-0.0939 -3.04,-0.33072 z"
       id="path1"
       inkscape:export-filename="Logo_CRS.svg"
       inkscape:export-xdpi="96"
       inkscape:export-ydpi="96" /></g></svg>
